<svg xmlns="http://www.w3.org/2000/svg" width="409.8289794921875" height="319.4886474609375" viewBox="-387.8299865722656 -227.88339233398438 409.8289794921875 319.4886474609375"><title>Neo4j Graph Visualization</title><desc>Created using Neo4j (http://www.neo4j.com/)</desc><g class="layer relationships"><g class="relationship" transform="translate(-13.45795348572289 -74.58991683083961) rotate(517.0388235158282)"><path class="b-outline" fill="#A5ABB6" stroke="none" d="M 25 0.5 L 37.412141912740964 0.5 L 37.412141912740964 -0.5 L 25 -0.5 Z M 82.8454762633269 0.5 L 95.25761817606787 0.5 L 95.25761817606787 3.5 L 102.25761817606787 0 L 95.25761817606787 -3.5 L 95.25761817606787 -0.5 L 82.8454762633269 -0.5 Z"/><text text-anchor="middle" pointer-events="none" font-size="8px" fill="#000000" x="60.12880908803393" y="3" transform="rotate(180 60.12880908803393 0)" font-family="Helvetica Neue, Helvetica, Arial, sans-serif">CONTAINS</text></g><g class="relationship" transform="translate(-358.8299823593354 -62.93355088117937) rotate(379.63730148713967)"><path class="b-outline" fill="#A5ABB6" stroke="none" d="M 25 0.5 L 160.56101289532464 0.5 L 160.56101289532464 -0.5 L 25 -0.5 Z M 205.99434724591057 0.5 L 341.5553601412352 0.5 L 341.5553601412352 3.5 L 348.5553601412352 0 L 341.5553601412352 -3.5 L 341.5553601412352 -0.5 L 205.99434724591057 -0.5 Z"/><text text-anchor="middle" pointer-events="none" font-size="8px" fill="#000000" x="183.2776800706176" y="3" font-family="Helvetica Neue, Helvetica, Arial, sans-serif">CONTAINS</text></g><g class="relationship" transform="translate(-13.45795348572289 -74.58991683083961) rotate(447.30543105728174)"><path class="b-outline" fill="#A5ABB6" stroke="none" d="M 25 0.5 L 42.45685119126972 0.5 L 42.45685119126972 -0.5 L 25 -0.5 Z M 87.89018554185566 0.5 L 105.34703673312538 0.5 L 105.34703673312538 3.5 L 112.34703673312538 0 L 105.34703673312538 -3.5 L 105.34703673312538 -0.5 L 87.89018554185566 -0.5 Z"/><text text-anchor="middle" pointer-events="none" font-size="8px" fill="#000000" x="65.17351836656269" y="3" font-family="Helvetica Neue, Helvetica, Arial, sans-serif">CONTAINS</text></g><g class="relationship" transform="translate(-358.8299823593354 -62.93355088117937) rotate(350.2055540625141)"><path class="b-outline" fill="#A5ABB6" stroke="none" d="M 25 0.5 L 89.86059537835104 0.5 L 89.86059537835104 -0.5 L 25 -0.5 Z M 135.29392972893697 0.5 L 200.154525107288 0.5 L 200.154525107288 3.5 L 207.154525107288 0 L 200.154525107288 -3.5 L 200.154525107288 -0.5 L 135.29392972893697 -0.5 Z"/><text text-anchor="middle" pointer-events="none" font-size="8px" fill="#000000" x="112.577262553644" y="3" font-family="Helvetica Neue, Helvetica, Arial, sans-serif">CONTAINS</text></g><g class="relationship" transform="translate(-13.45795348572289 -74.58991683083961) rotate(193.42697401284465)"><path class="b-outline" fill="#A5ABB6" stroke="none" d="M 25 0.5 L 33.72231334280298 0.5 L 33.72231334280298 -0.5 L 25 -0.5 Z M 79.15564769338891 0.5 L 87.87796103619189 0.5 L 87.87796103619189 3.5 L 94.87796103619189 0 L 87.87796103619189 -3.5 L 87.87796103619189 -0.5 L 79.15564769338891 -0.5 Z"/><text text-anchor="middle" pointer-events="none" font-size="8px" fill="#000000" x="56.438980518095946" y="3" transform="rotate(180 56.438980518095946 0)" font-family="Helvetica Neue, Helvetica, Arial, sans-serif">CONTAINS</text></g><g class="relationship" transform="translate(-358.8299823593354 -62.93355088117937) rotate(338.30057360639967)"><path class="b-outline" fill="#A5ABB6" stroke="none" d="M 25 0.5 L 157.62978532595164 0.5 L 157.62978532595164 -0.5 L 25 -0.5 Z M 203.06311967653758 0.5 L 335.6929050024892 0.5 L 335.6929050024892 3.5 L 342.6929050024892 0 L 335.6929050024892 -3.5 L 335.6929050024892 -0.5 L 203.06311967653758 -0.5 Z"/><text text-anchor="middle" pointer-events="none" font-size="8px" fill="#000000" x="180.3464525012446" y="3" font-family="Helvetica Neue, Helvetica, Arial, sans-serif">CONTAINS</text></g><g class="relationship" transform="translate(-13.45795348572289 -74.58991683083961) rotate(268.27869016912416)"><path class="b-outline" fill="#A5ABB6" stroke="none" d="M 25 0.5 L 35.95812530431594 0.5 L 35.95812530431594 -0.5 L 25 -0.5 Z M 81.39145965490188 0.5 L 92.34958495921782 0.5 L 92.34958495921782 3.5 L 99.34958495921782 0 L 92.34958495921782 -3.5 L 92.34958495921782 -0.5 L 81.39145965490188 -0.5 Z"/><text text-anchor="middle" pointer-events="none" font-size="8px" fill="#000000" x="58.67479247960891" y="3" transform="rotate(180 58.67479247960891 0)" font-family="Helvetica Neue, Helvetica, Arial, sans-serif">CONTAINS</text></g><g class="relationship" transform="translate(-358.8299823593354 -62.93355088117937) rotate(369.4513064703115)"><path class="b-outline" fill="#A5ABB6" stroke="none" d="M 25 0.5 L 89.45203005872222 0.5 L 89.45203005872222 -0.5 L 25 -0.5 Z M 134.88536440930815 0.5 L 199.33739446803037 0.5 L 199.33739446803037 3.5 L 206.33739446803037 0 L 199.33739446803037 -3.5 L 199.33739446803037 -0.5 L 134.88536440930815 -0.5 Z"/><text text-anchor="middle" pointer-events="none" font-size="8px" fill="#000000" x="112.16869723401518" y="3" font-family="Helvetica Neue, Helvetica, Arial, sans-serif">CONTAINS</text></g></g><g class="layer nodes"><g class="node" aria-label="graph-node-103" transform="translate(-130.63287432260626,-24.945790182101007)"><circle class="b-outline" cx="0" cy="0" r="25" fill="#C990C0" stroke="#b261a5" stroke-width="2px"/><text class="caption" text-anchor="middle" pointer-events="none" x="0" y="5" font-size="10px" fill="#FFFFFF" font-family="Helvetica Neue, Helvetica, Arial, sans-serif"> Company</text></g><g class="node" aria-label="graph-node-101" transform="translate(-7.001026748413267,62.60526018526221)"><circle class="b-outline" cx="0" cy="0" r="25" fill="#F79767" stroke="#f36924" stroke-width="2px"/><text class="caption" text-anchor="middle" pointer-events="none" x="0" y="5" font-size="10px" fill="#FFFFFF" font-family="Helvetica Neue, Helvetica, Arial, sans-serif"> Address</text></g><g class="node" aria-label="graph-node-104" transform="translate(-13.45795348572289,-74.58991683083961)"><circle class="b-outline" cx="0" cy="0" r="25" fill="#57C7E3" stroke="#23b3d7" stroke-width="2px"/><text class="caption" text-anchor="middle" pointer-events="none" x="0" y="5" font-size="10px" fill="#2A2C34" font-family="Helvetica Neue, Helvetica, Arial, sans-serif"> Message</text></g><g class="node" aria-label="graph-node-100" transform="translate(-130.05925028111028,-102.42628023967458)"><circle class="b-outline" cx="0" cy="0" r="25" fill="#F16667" stroke="#eb2728" stroke-width="2px"/><text class="caption" text-anchor="middle" pointer-events="none" x="0" y="5" font-size="10px" fill="#FFFFFF" font-family="Helvetica Neue, Helvetica, Arial, sans-serif"> Country</text></g><g class="node" aria-label="graph-node-105" transform="translate(-358.8299823593354,-62.93355088117937)"><circle class="b-outline" cx="0" cy="0" r="25" fill="#D9C8AE" stroke="#c0a378" stroke-width="2px"/><text class="caption" text-anchor="middle" pointer-events="none" x="0" y="5" font-size="10px" fill="#2A2C34" font-family="Helvetica Neue, Helvetica, Arial, sans-serif"> ToReInd…</text></g><g class="node" aria-label="graph-node-102" transform="translate(-17.19316694504306,-198.88338994967657)"><circle class="b-outline" cx="0" cy="0" r="25" fill="#8DCC93" stroke="#5db665" stroke-width="2px"/><text class="caption" text-anchor="middle" pointer-events="none" x="0" y="5" font-size="10px" fill="#2A2C34" font-family="Helvetica Neue, Helvetica, Arial, sans-serif"> Person</text></g></g></svg>